<svg width="75" height="83" viewBox="0 0 75 83" fill="none" xmlns="http://www.w3.org/2000/svg">
<path fill-rule="evenodd" clip-rule="evenodd" d="M37.5 7.54545H7.5V75.4545H45V83H7.5C3.35786 83 0 79.6218 0 75.4545V7.54545C0 3.37821 3.35786 0 7.5 0H46.5533L67.5 21.0736V49.0455H60V30.1818H45C40.8579 30.1818 37.5 26.8036 37.5 22.6364V7.54545ZM60 67.9091V60.3636H67.5V67.9091H75V75.4545H67.5V83H60V75.4545H52.5V67.9091H60ZM58.4467 22.6364L45 9.10817V22.6364H58.4467Z" fill="#71B6F9"/>
<path fill-rule="evenodd" clip-rule="evenodd" d="M37.5 7.54545H7.5V75.4545H45V83H7.5C3.35786 83 0 79.6218 0 75.4545V7.54545C0 3.37821 3.35786 0 7.5 0H46.5533L67.5 21.0736V49.0455H60V30.1818H45C40.8579 30.1818 37.5 26.8036 37.5 22.6364V7.54545ZM60 67.9091V60.3636H67.5V67.9091H75V75.4545H67.5V83H60V75.4545H52.5V67.9091H60ZM58.4467 22.6364L45 9.10817V22.6364H58.4467Z" fill="black" fill-opacity="0.2"/>
</svg>
