<svg width="87" height="65" viewBox="0 0 87 65" fill="none" xmlns="http://www.w3.org/2000/svg">
<path d="M13.5938 50H2.71875C1.99769 50 1.30617 50.2634 0.796303 50.7322C0.286439 51.2011 0 51.837 0 52.5L0 62.5C0 63.163 0.286439 63.7989 0.796303 64.2678C1.30617 64.7366 1.99769 65 2.71875 65H13.5938C14.3148 65 15.0063 64.7366 15.5162 64.2678C16.0261 63.7989 16.3125 63.163 16.3125 62.5V52.5C16.3125 51.837 16.0261 51.2011 15.5162 50.7322C15.0063 50.2634 14.3148 50 13.5938 50ZM13.5938 0H2.71875C1.99769 0 1.30617 0.263392 0.796303 0.732233C0.286439 1.20107 0 1.83696 0 2.5L0 12.5C0 13.163 0.286439 13.7989 0.796303 14.2678C1.30617 14.7366 1.99769 15 2.71875 15H13.5938C14.3148 15 15.0063 14.7366 15.5162 14.2678C16.0261 13.7989 16.3125 13.163 16.3125 12.5V2.5C16.3125 1.83696 16.0261 1.20107 15.5162 0.732233C15.0063 0.263392 14.3148 0 13.5938 0ZM13.5938 25H2.71875C1.99769 25 1.30617 25.2634 0.796303 25.7322C0.286439 26.2011 0 26.837 0 27.5L0 37.5C0 38.163 0.286439 38.7989 0.796303 39.2678C1.30617 39.7366 1.99769 40 2.71875 40H13.5938C14.3148 40 15.0063 39.7366 15.5162 39.2678C16.0261 38.7989 16.3125 38.163 16.3125 37.5V27.5C16.3125 26.837 16.0261 26.2011 15.5162 25.7322C15.0063 25.2634 14.3148 25 13.5938 25ZM84.2812 52.5H29.9062C29.1852 52.5 28.4937 52.7634 27.9838 53.2322C27.4739 53.7011 27.1875 54.337 27.1875 55V60C27.1875 60.663 27.4739 61.2989 27.9838 61.7678C28.4937 62.2366 29.1852 62.5 29.9062 62.5H84.2812C85.0023 62.5 85.6938 62.2366 86.2037 61.7678C86.7136 61.2989 87 60.663 87 60V55C87 54.337 86.7136 53.7011 86.2037 53.2322C85.6938 52.7634 85.0023 52.5 84.2812 52.5ZM84.2812 2.5H29.9062C29.1852 2.5 28.4937 2.76339 27.9838 3.23223C27.4739 3.70107 27.1875 4.33696 27.1875 5V10C27.1875 10.663 27.4739 11.2989 27.9838 11.7678C28.4937 12.2366 29.1852 12.5 29.9062 12.5H84.2812C85.0023 12.5 85.6938 12.2366 86.2037 11.7678C86.7136 11.2989 87 10.663 87 10V5C87 4.33696 86.7136 3.70107 86.2037 3.23223C85.6938 2.76339 85.0023 2.5 84.2812 2.5ZM84.2812 27.5H29.9062C29.1852 27.5 28.4937 27.7634 27.9838 28.2322C27.4739 28.7011 27.1875 29.337 27.1875 30V35C27.1875 35.663 27.4739 36.2989 27.9838 36.7678C28.4937 37.2366 29.1852 37.5 29.9062 37.5H84.2812C85.0023 37.5 85.6938 37.2366 86.2037 36.7678C86.7136 36.2989 87 35.663 87 35V30C87 29.337 86.7136 28.7011 86.2037 28.2322C85.6938 27.7634 85.0023 27.5 84.2812 27.5Z" fill="#71B6F9"/>
<path d="M13.5938 50H2.71875C1.99769 50 1.30617 50.2634 0.796303 50.7322C0.286439 51.2011 0 51.837 0 52.5L0 62.5C0 63.163 0.286439 63.7989 0.796303 64.2678C1.30617 64.7366 1.99769 65 2.71875 65H13.5938C14.3148 65 15.0063 64.7366 15.5162 64.2678C16.0261 63.7989 16.3125 63.163 16.3125 62.5V52.5C16.3125 51.837 16.0261 51.2011 15.5162 50.7322C15.0063 50.2634 14.3148 50 13.5938 50ZM13.5938 0H2.71875C1.99769 0 1.30617 0.263392 0.796303 0.732233C0.286439 1.20107 0 1.83696 0 2.5L0 12.5C0 13.163 0.286439 13.7989 0.796303 14.2678C1.30617 14.7366 1.99769 15 2.71875 15H13.5938C14.3148 15 15.0063 14.7366 15.5162 14.2678C16.0261 13.7989 16.3125 13.163 16.3125 12.5V2.5C16.3125 1.83696 16.0261 1.20107 15.5162 0.732233C15.0063 0.263392 14.3148 0 13.5938 0ZM13.5938 25H2.71875C1.99769 25 1.30617 25.2634 0.796303 25.7322C0.286439 26.2011 0 26.837 0 27.5L0 37.5C0 38.163 0.286439 38.7989 0.796303 39.2678C1.30617 39.7366 1.99769 40 2.71875 40H13.5938C14.3148 40 15.0063 39.7366 15.5162 39.2678C16.0261 38.7989 16.3125 38.163 16.3125 37.5V27.5C16.3125 26.837 16.0261 26.2011 15.5162 25.7322C15.0063 25.2634 14.3148 25 13.5938 25ZM84.2812 52.5H29.9062C29.1852 52.5 28.4937 52.7634 27.9838 53.2322C27.4739 53.7011 27.1875 54.337 27.1875 55V60C27.1875 60.663 27.4739 61.2989 27.9838 61.7678C28.4937 62.2366 29.1852 62.5 29.9062 62.5H84.2812C85.0023 62.5 85.6938 62.2366 86.2037 61.7678C86.7136 61.2989 87 60.663 87 60V55C87 54.337 86.7136 53.7011 86.2037 53.2322C85.6938 52.7634 85.0023 52.5 84.2812 52.5ZM84.2812 2.5H29.9062C29.1852 2.5 28.4937 2.76339 27.9838 3.23223C27.4739 3.70107 27.1875 4.33696 27.1875 5V10C27.1875 10.663 27.4739 11.2989 27.9838 11.7678C28.4937 12.2366 29.1852 12.5 29.9062 12.5H84.2812C85.0023 12.5 85.6938 12.2366 86.2037 11.7678C86.7136 11.2989 87 10.663 87 10V5C87 4.33696 86.7136 3.70107 86.2037 3.23223C85.6938 2.76339 85.0023 2.5 84.2812 2.5ZM84.2812 27.5H29.9062C29.1852 27.5 28.4937 27.7634 27.9838 28.2322C27.4739 28.7011 27.1875 29.337 27.1875 30V35C27.1875 35.663 27.4739 36.2989 27.9838 36.7678C28.4937 37.2366 29.1852 37.5 29.9062 37.5H84.2812C85.0023 37.5 85.6938 37.2366 86.2037 36.7678C86.7136 36.2989 87 35.663 87 35V30C87 29.337 86.7136 28.7011 86.2037 28.2322C85.6938 27.7634 85.0023 27.5 84.2812 27.5Z" fill="black" fill-opacity="0.2"/>
</svg>
