<svg width="97" height="85" viewBox="0 0 97 85" fill="none" xmlns="http://www.w3.org/2000/svg">
<path d="M38.2251 29.4437V50.5037C38.2251 51.6737 38.8416 52.7137 39.8691 53.2987L57.1311 63.1137C58.7066 64.0237 60.6931 63.5037 61.6521 62.0737C62.6111 60.5787 62.0631 58.6287 60.5561 57.7837L45.0751 49.0737V29.4437C45.0751 27.7537 43.6366 26.3237 41.7871 26.3237H41.5131C39.6636 26.3237 38.2251 27.6887 38.2251 29.4437Z" fill="#71B6F9"/>
<path d="M38.2251 29.4437V50.5037C38.2251 51.6737 38.8416 52.7137 39.8691 53.2987L57.1311 63.1137C58.7066 64.0237 60.6931 63.5037 61.6521 62.0737C62.6111 60.5787 62.0631 58.6287 60.5561 57.7837L45.0751 49.0737V29.4437C45.0751 27.7537 43.6366 26.3237 41.7871 26.3237H41.5131C39.6636 26.3237 38.2251 27.6887 38.2251 29.4437Z" fill="black" fill-opacity="0.2"/>
<path d="M75.215 39C75.6945 41.08 75.9 43.29 75.9 45.5C75.9 63.44 60.556 78 41.65 78C22.744 78 7.40005 63.44 7.40005 45.5C7.40005 27.56 22.744 13 41.65 13C46.5135 13 51.1715 13.975 55.35 15.73V8.775C51.0345 7.345 46.445 6.5 41.65 6.5C18.9765 6.5 0.550049 23.985 0.550049 45.5C0.550049 67.015 18.9765 84.5 41.65 84.5C64.3235 84.5 82.75 67.015 82.75 45.5C82.75 43.29 82.476 41.145 82.1335 39H75.215Z" fill="#71B6F9"/>
<path d="M75.215 39C75.6945 41.08 75.9 43.29 75.9 45.5C75.9 63.44 60.556 78 41.65 78C22.744 78 7.40005 63.44 7.40005 45.5C7.40005 27.56 22.744 13 41.65 13C46.5135 13 51.1715 13.975 55.35 15.73V8.775C51.0345 7.345 46.445 6.5 41.65 6.5C18.9765 6.5 0.550049 23.985 0.550049 45.5C0.550049 67.015 18.9765 84.5 41.65 84.5C64.3235 84.5 82.75 67.015 82.75 45.5C82.75 43.29 82.476 41.145 82.1335 39H75.215Z" fill="black" fill-opacity="0.2"/>
<path d="M82.7501 13V3.25C82.7501 1.43 81.2431 0 79.3251 0C77.4071 0 75.9001 1.43 75.9001 3.25V13H65.6251C63.7071 13 62.2001 14.43 62.2001 16.25C62.2001 18.07 63.7071 19.5 65.6251 19.5H75.9001V29.25C75.9001 31.07 77.4071 32.5 79.3251 32.5C81.2431 32.5 82.7501 31.07 82.7501 29.25V19.5H93.0251C94.9431 19.5 96.4501 18.07 96.4501 16.25C96.4501 14.43 94.9431 13 93.0251 13H82.7501Z" fill="#71B6F9"/>
<path d="M82.7501 13V3.25C82.7501 1.43 81.2431 0 79.3251 0C77.4071 0 75.9001 1.43 75.9001 3.25V13H65.6251C63.7071 13 62.2001 14.43 62.2001 16.25C62.2001 18.07 63.7071 19.5 65.6251 19.5H75.9001V29.25C75.9001 31.07 77.4071 32.5 79.3251 32.5C81.2431 32.5 82.7501 31.07 82.7501 29.25V19.5H93.0251C94.9431 19.5 96.4501 18.07 96.4501 16.25C96.4501 14.43 94.9431 13 93.0251 13H82.7501Z" fill="black" fill-opacity="0.2"/>
</svg>
